# xmcd
#
# Track frame offsets:
#	150
#	10323
#	20429
#	31987
#	43010
#	55105
#	63293
#	76224
#	86730
#	99726
#	112330
#	120845
#	131098
#	143267
#	155228
#	167810
#	177465
#	186952
#	196327
#	209270
#	218318
#	228275
#	237415
#	251059
#	263099
#	274112
#	284514
#	294704
#
# Disc length: 4056 seconds
#
# Revision: 0
# Processed by: cddbd v1.5.1PL0 Copyright (c) Steve Scherf et al.
# Submitted via: dBpowerAMP V4.0
#
DISCID=980fd61c
DTITLE=Johnny Cash - The Essentials CD1
DYEAR=1900
DGENRE=
TTITLE0=All Over Again
TTITLE1=Ballad of a Teenage Queen
TTITLE2=Big River
TTITLE3=Cry, Cry, Cry
TTITLE4=Doin' my Time
TTITLE5=Five Feet High And Rising
TTITLE6=Folsom Prison Blues
TTITLE7=Frankie's Man, Johnny
TTITLE8=Get Rhythm
TTITLE9=Give my Love to Rose
TTITLE10=Guess Things Happen That Way
TTITLE11=Hey Porter
TTITLE12=Home of The Blues
TTITLE13=I Still Miss Someone
TTITLE14=I Walk The Line
TTITLE15=I'd Just be Fool Enough
TTITLE16=Luther Played The Boogie
TTITLE17=Oh, What a Dream
TTITLE18=Peace in The Valley
TTITLE19=Pickin' Time
TTITLE20=Rock Island Line
TTITLE21=Sing it Pretty, Sue
TTITLE22=Tennessee Flat-Top Box
TTITLE23=Thanks a Lot
TTITLE24=The Old Account
TTITLE25=The Ways of a Woman in Love
TTITLE26=Walking The Blues
TTITLE27=What do I Care
EXTD=
EXTT0=
EXTT1=
EXTT2=
EXTT3=
EXTT4=
EXTT5=
EXTT6=
EXTT7=
EXTT8=
EXTT9=
EXTT10=
EXTT11=
EXTT12=
EXTT13=
EXTT14=
EXTT15=
EXTT16=
EXTT17=
EXTT18=
EXTT19=
EXTT20=
EXTT21=
EXTT22=
EXTT23=
EXTT24=
EXTT25=
EXTT26=
EXTT27=
PLAYORDER=
